<svg width="225" height="70" viewBox="0 0 225 70" fill="none" xmlns="http://www.w3.org/2000/svg">
<path d="M119.879 68.0761L114.837 53.0635H93.8299L88.7881 68.0761H79.8886L99.7884 12.5294H109.032L128.932 68.0761H119.879ZM104.219 21.7679L96.0071 46.1346H112.66L104.448 21.7679H104.219Z" fill="black"/>
<path d="M151.696 68.0761H143.14V45.3262L123.737 12.5294H133.286L147.342 37.05H147.609L161.665 12.5294H171.138L151.696 45.3262V68.0761Z" fill="black"/>
<path d="M198.18 11.6055C206.099 11.6055 212.376 14.1846 217.01 19.3428C221.67 24.501 224 31.4941 224 40.322C224 49.1499 221.683 56.143 217.048 61.3012C212.414 66.4337 206.125 69 198.18 69C190.235 69 183.946 66.4337 179.311 61.3012C174.677 56.143 172.36 49.1499 172.36 40.322C172.36 31.4941 174.677 24.501 179.311 19.3428C183.946 14.1846 190.235 11.6055 198.18 11.6055ZM198.18 19.1888C192.934 19.1888 188.771 21.0879 185.69 24.8859C182.634 28.684 181.107 33.8294 181.107 40.322C181.107 46.789 182.634 51.9215 185.69 55.7196C188.771 59.5177 192.934 61.4167 198.18 61.4167C203.4 61.4167 207.538 59.5177 210.593 55.7196C213.675 51.9215 215.215 46.789 215.215 40.322C215.215 33.8294 213.675 28.684 210.593 24.8859C207.538 21.0879 203.4 19.1888 198.18 19.1888Z" fill="black"/>
<path d="M10.5638 43.2126L1 26.021H51.6624C52.6533 25.5869 54.635 23.9372 54.635 20.8114C54.635 17.6857 51.6193 16.8174 50.1115 16.774H39.643V22.3743H22.7125V1.01508H52.8256C56.6597 0.798016 65.517 2.83843 70.2731 12.7366C75.0292 22.6348 70.1008 30.8399 67.0421 33.7051C70.23 35.051 76.2182 40.5818 74.6673 51.9386C73.1164 63.2955 63.1649 67.6976 56.3151 68.6093L48.3022 68.8046H39.5138L22.7125 69V46.8593H39.643V52.9806H52.8256C54.1611 52.8937 56.9613 51.8084 57.4783 48.1617C57.9952 44.515 54.5919 43.3429 52.8256 43.2126H10.5638Z" fill="black"/>
<path d="M119.879 68.0761L114.837 53.0635H93.8299L88.7881 68.0761H79.8886L99.7884 12.5294H109.032L128.932 68.0761H119.879ZM104.219 21.7679L96.0071 46.1346H112.66L104.448 21.7679H104.219Z" stroke="black"/>
<path d="M151.696 68.0761H143.14V45.3262L123.737 12.5294H133.286L147.342 37.05H147.609L161.665 12.5294H171.138L151.696 45.3262V68.0761Z" stroke="black"/>
<path d="M198.18 11.6055C206.099 11.6055 212.376 14.1846 217.01 19.3428C221.67 24.501 224 31.4941 224 40.322C224 49.1499 221.683 56.143 217.048 61.3012C212.414 66.4337 206.125 69 198.18 69C190.235 69 183.946 66.4337 179.311 61.3012C174.677 56.143 172.36 49.1499 172.36 40.322C172.36 31.4941 174.677 24.501 179.311 19.3428C183.946 14.1846 190.235 11.6055 198.18 11.6055ZM198.18 19.1888C192.934 19.1888 188.771 21.0879 185.69 24.8859C182.634 28.684 181.107 33.8294 181.107 40.322C181.107 46.789 182.634 51.9215 185.69 55.7196C188.771 59.5177 192.934 61.4167 198.18 61.4167C203.4 61.4167 207.538 59.5177 210.593 55.7196C213.675 51.9215 215.215 46.789 215.215 40.322C215.215 33.8294 213.675 28.684 210.593 24.8859C207.538 21.0879 203.4 19.1888 198.18 19.1888Z" stroke="black"/>
<path d="M10.5638 43.2126L1 26.021H51.6624C52.6533 25.5869 54.635 23.9372 54.635 20.8114C54.635 17.6857 51.6193 16.8174 50.1115 16.774H39.643V22.3743H22.7125V1.01508H52.8256C56.6597 0.798016 65.517 2.83843 70.2731 12.7366C75.0292 22.6348 70.1008 30.8399 67.0421 33.7051C70.23 35.051 76.2182 40.5818 74.6673 51.9386C73.1164 63.2955 63.1649 67.6976 56.3151 68.6093L48.3022 68.8046H39.5138L22.7125 69V46.8593H39.643V52.9806H52.8256C54.1611 52.8937 56.9613 51.8084 57.4783 48.1617C57.9952 44.515 54.5919 43.3429 52.8256 43.2126H10.5638Z" stroke="black"/>
</svg>
