<svg width="209" height="66" viewBox="0 0 209 66" fill="none" xmlns="http://www.w3.org/2000/svg">
<path d="M119.708 60.3027H102.557L101.397 56.1084C100.916 56.2976 99.7145 56.9388 97.7914 58.0321C96.5582 58.831 95.1891 59.8928 93.6841 61.2173L91.8969 57.4014C91.5416 56.6445 91.0295 55.5828 90.3606 54.2162L88.6675 60.3027H79.5749C80.9126 55.1097 82.982 46.5422 85.7829 34.6003C87.4969 26.611 88.9288 19.0317 90.0784 11.8624H108.922C109.507 15.1632 111.106 22.8477 113.719 34.9157C115.161 41.223 117.158 49.6854 119.708 60.3027ZM99.9235 49.9587C99.5681 48.8444 98.9411 47.0363 98.0423 44.5344C97.4988 43.1468 96.6731 41.2336 95.5653 38.7947C95.0846 40.0141 94.3321 42.0115 93.3078 44.7867C92.7435 46.3846 92.0746 48.5606 91.3012 51.3148C91.9283 51.3148 93.3496 51.1886 95.5653 50.9364C96.9031 50.7471 98.3558 50.4213 99.9235 49.9587Z" fill="white"/>
<path d="M164.261 11.8624L158.367 22.8372C156.778 25.8437 154.636 30.0485 151.939 35.4518C151.689 38.3953 151.365 42.5686 150.967 47.9719C150.842 50.8523 150.633 54.9625 150.34 60.3027H134.287C134.204 57.6957 134.016 53.5224 133.723 47.7827C133.556 45.6172 133.169 41.5069 132.563 35.4518C131.476 33.2022 129.657 29.5545 127.107 24.5086C125.456 21.439 123.052 17.2236 119.896 11.8624H143.035C143.411 13.229 144.07 15.384 145.01 18.3274L148.02 26.8423C148.814 24.9081 149.891 22.0487 151.25 18.2643C151.709 16.7716 152.305 14.6376 153.037 11.8624H164.261Z" fill="white"/>
<path d="M208 35.0419C208 42.4635 206.098 48.7393 202.294 53.8693C198.301 59.2305 193.191 61.9111 186.962 61.9111C180.545 61.9111 175.35 59.2095 171.379 53.8062C167.637 48.7183 165.766 42.4635 165.766 35.0419C165.766 27.1156 167.804 20.8924 171.88 16.3721C175.726 12.1252 180.754 10.0017 186.962 10.0017C193.065 10.0017 198.04 12.1357 201.886 16.4037C205.962 20.945 208 27.1577 208 35.0419ZM192.919 40.5923C192.919 34.7475 190.954 31.8251 187.024 31.8251C183.199 31.8251 181.287 34.7685 181.287 40.6554C181.287 43.0101 181.788 45.2072 182.792 47.2466C183.92 49.5382 185.31 50.6841 186.962 50.6841C188.571 50.6841 189.992 49.5172 191.226 47.1835C192.354 45.06 192.919 42.863 192.919 40.5923Z" fill="white"/>
<path d="M9.9877 40.7295L1 24.5492H48.6105C49.5417 24.1406 51.404 22.5879 51.404 19.6461C51.404 16.7042 48.57 15.887 47.153 15.8461H37.3152V21.117H21.4045V1.01419H49.7036C53.3068 0.809897 61.6305 2.73029 66.1001 12.0462C70.5696 21.3622 65.9381 29.0846 63.0637 31.7813C66.0596 33.048 71.687 38.2534 70.2296 48.9423C68.7721 59.6311 59.42 63.7742 52.9829 64.6323L45.4527 64.8161H37.1937L21.4045 65V44.1617H37.3152V49.9229H49.7036C50.9586 49.8412 53.5902 48.8197 54.076 45.3875C54.5618 41.9553 51.3635 40.8521 49.7036 40.7295H9.9877Z" fill="white"/>
<path d="M119.708 60.3027H102.557L101.397 56.1084C100.916 56.2976 99.7145 56.9388 97.7914 58.0321C96.5582 58.831 95.1891 59.8928 93.6841 61.2173L91.8969 57.4014C91.5416 56.6445 91.0295 55.5828 90.3606 54.2162L88.6675 60.3027H79.5749C80.9126 55.1097 82.982 46.5422 85.7829 34.6003C87.4969 26.611 88.9288 19.0317 90.0784 11.8624H108.922C109.507 15.1632 111.106 22.8477 113.719 34.9157C115.161 41.223 117.158 49.6854 119.708 60.3027ZM99.9235 49.9587C99.5681 48.8444 98.9411 47.0363 98.0423 44.5344C97.4988 43.1468 96.6731 41.2336 95.5653 38.7947C95.0846 40.0141 94.3321 42.0115 93.3078 44.7867C92.7435 46.3846 92.0746 48.5606 91.3012 51.3148C91.9283 51.3148 93.3496 51.1886 95.5653 50.9364C96.9031 50.7471 98.3558 50.4213 99.9235 49.9587Z" stroke="black"/>
<path d="M164.261 11.8624L158.367 22.8372C156.778 25.8437 154.636 30.0485 151.939 35.4518C151.689 38.3953 151.365 42.5686 150.967 47.9719C150.842 50.8523 150.633 54.9625 150.34 60.3027H134.287C134.204 57.6957 134.016 53.5224 133.723 47.7827C133.556 45.6172 133.169 41.5069 132.563 35.4518C131.476 33.2022 129.657 29.5545 127.107 24.5086C125.456 21.439 123.052 17.2236 119.896 11.8624H143.035C143.411 13.229 144.07 15.384 145.01 18.3274L148.02 26.8423C148.814 24.9081 149.891 22.0487 151.25 18.2643C151.709 16.7716 152.305 14.6376 153.037 11.8624H164.261Z" stroke="black"/>
<path d="M208 35.0419C208 42.4635 206.098 48.7393 202.294 53.8693C198.301 59.2305 193.191 61.9111 186.962 61.9111C180.545 61.9111 175.35 59.2095 171.379 53.8062C167.637 48.7183 165.766 42.4635 165.766 35.0419C165.766 27.1156 167.804 20.8924 171.88 16.3721C175.726 12.1252 180.754 10.0017 186.962 10.0017C193.065 10.0017 198.04 12.1357 201.886 16.4037C205.962 20.945 208 27.1577 208 35.0419ZM192.919 40.5923C192.919 34.7475 190.954 31.8251 187.024 31.8251C183.199 31.8251 181.287 34.7685 181.287 40.6554C181.287 43.0101 181.788 45.2072 182.792 47.2466C183.92 49.5382 185.31 50.6841 186.962 50.6841C188.571 50.6841 189.992 49.5172 191.226 47.1835C192.354 45.06 192.919 42.863 192.919 40.5923Z" stroke="black"/>
<path d="M9.9877 40.7295L1 24.5492H48.6105C49.5417 24.1406 51.404 22.5879 51.404 19.6461C51.404 16.7042 48.57 15.887 47.153 15.8461H37.3152V21.117H21.4045V1.01419H49.7036C53.3068 0.809897 61.6305 2.73029 66.1001 12.0462C70.5696 21.3622 65.9381 29.0846 63.0637 31.7813C66.0596 33.048 71.687 38.2534 70.2296 48.9423C68.7721 59.6311 59.42 63.7742 52.9829 64.6323L45.4527 64.8161H37.1937L21.4045 65V44.1617H37.3152V49.9229H49.7036C50.9586 49.8412 53.5902 48.8197 54.076 45.3875C54.5618 41.9553 51.3635 40.8521 49.7036 40.7295H9.9877Z" stroke="black"/>
</svg>
